<?xml version="1.0" encoding="iso-8859-1"?>
<!-- Uploaded to: SVG Repo, www.svgrepo.com, Generator: SVG Repo Mixer Tools -->
<svg version="1.1" id="Layer_1" xmlns="http://www.w3.org/2000/svg" xmlns:xlink="http://www.w3.org/1999/xlink" 
	 viewBox="0 0 512 512" xml:space="preserve">
<polygon style="fill:#36C9A3;" points="320.041,356.065 504.16,356.065 504.16,43.863 191.959,43.863 191.959,155.935 
	320.041,155.935 "/>
<polygon style="fill:#FAEDD6;" points="319.762,268.021 472.373,268.021 472.373,75.69 223.597,75.69 223.597,156.177 
	319.762,156.177 "/>
<path style="fill:#FA004B;" d="M320.041,187.956l32.021,32.021l51.445-51.445c13.589-13.589,13.589-35.62,0-49.208
	c-13.589-13.589-35.62-13.589-49.208,0l-2.237,2.237l-2.237-2.237c-13.589-13.589-35.62-13.589-49.208,0
	c-9.9,9.9-12.587,24.28-8.062,36.612"/>
<rect x="7.84" y="155.934" style="fill:#FAEDD6;" width="312.203" height="312.203"/>
<rect x="39.628" y="187.533" style="fill:#FFFFFF;" width="248.776" height="192.331"/>
<path style="fill:#FA004B;" d="M189.323,243.991c-0.867-7.527-4.187-14.826-9.961-20.6c-13.589-13.589-35.62-13.589-49.208,0
	l-2.237,2.237l-2.237-2.237c-13.589-13.589-35.62-13.589-49.208,0s-13.589,35.62,0,49.208l51.445,51.445l24.015-24.015"/>
<path style="fill:#36C9A3;" d="M251.409,247.406c-13.589-13.589-35.62-13.589-49.208,0l-2.237,2.237l-2.237-2.237
	c-13.589-13.589-35.62-13.589-49.208,0c-13.589,13.589-13.589,35.62,0,49.208l51.445,51.445l51.445-51.445
	C264.997,283.026,264.997,260.995,251.409,247.406z"/>
<g>
	<polygon style="fill:#232323;" points="512,363.904 336.052,363.904 336.052,348.225 496.321,348.225 496.321,51.701 
		199.798,51.701 199.798,139.925 184.119,139.925 184.119,36.022 512,36.022 	"/>
	<path style="fill:#232323;" d="M295.721,388.228H32.312v-208.01h263.409V388.228z M47.991,372.549h232.051V195.897H47.991
		L47.991,372.549L47.991,372.549z"/>
	<path style="fill:#232323;" d="M127.917,335.131l24.015-24.015l48.031,48.031l56.988-56.988c16.623-16.624,16.623-43.672,0-60.297
		c-15.561-15.561-40.261-16.555-56.988-2.981c-1.401-1.136-2.862-2.162-4.364-3.094c-2.019-6.731-5.687-12.933-10.694-17.941
		c-15.561-15.56-40.258-16.556-56.988-2.981c-16.729-13.574-41.426-12.58-56.988,2.982c-16.623,16.623-16.623,43.672,0,60.296
		L127.917,335.131z M192.183,252.95l7.779,7.779l7.781-7.779c10.511-10.511,27.613-10.511,38.121,0
		c10.51,10.51,10.51,27.611,0,38.121l-45.902,45.902l-45.901-45.902c-5.092-5.09-7.895-11.861-7.895-19.06
		c0-7.201,2.804-13.97,7.895-19.061c5.255-5.256,12.158-7.883,19.061-7.883C180.026,245.067,186.929,247.694,192.183,252.95z
		 M82.015,228.934c10.508-10.511,27.61-10.511,38.12-0.002l7.781,7.785l7.78-7.783c10.511-10.51,27.613-10.51,38.121-0.001
		c0.157,0.157,0.295,0.326,0.447,0.486c-11.296-0.3-22.689,3.842-31.29,12.443c-8.053,8.053-12.488,18.76-12.488,30.148
		c0,10.378,3.693,20.182,10.44,27.936l-13.011,13.012l-45.902-45.902C71.505,256.545,71.505,239.444,82.015,228.934z"/>
	<path style="fill:#232323;" d="M409.051,113.779c-15.562-15.562-40.26-16.555-56.988-2.981
		c-16.73-13.575-41.426-12.58-56.988,2.981c-9.114,9.115-13.456,21.806-12.251,34.316H0v327.882h327.881V206.882l24.181,24.181
		l56.988-56.988C425.674,157.451,425.674,130.403,409.051,113.779z M312.202,460.299H15.679V163.775h296.523V460.299z
		 M397.965,162.988l-45.902,45.902l-24.181-24.182v-36.612h-29.279c-1.297-8.397,1.424-17.094,7.558-23.229
		c10.51-10.512,27.611-10.51,38.122,0l7.78,7.779l7.779-7.779c10.51-10.51,27.611-10.51,38.122,0
		C408.474,135.377,408.474,152.479,397.965,162.988z"/>
</g>
<g>
	<rect x="231.957" y="403.905" style="fill:#FA004B;" width="15.679" height="15.679"/>
	<rect x="255.998" y="403.905" style="fill:#FA004B;" width="15.679" height="15.679"/>
	<rect x="280.04" y="403.905" style="fill:#FA004B;" width="15.679" height="15.679"/>
</g>
<rect x="32.312" y="403.905" style="fill:#36C9A3;" width="95.12" height="15.679"/>
<polygon style="fill:#232323;" points="479.689,275.338 336.487,275.338 336.487,259.659 464.01,259.659 464.01,84.053 
	231.959,84.053 231.959,139.452 216.28,139.452 216.28,68.374 479.689,68.374 "/>
<g>
	<rect x="464.008" y="292.06" style="fill:#FFFFFF;" width="15.679" height="15.679"/>
	<rect x="439.967" y="292.06" style="fill:#FFFFFF;" width="15.679" height="15.679"/>
	<rect x="415.926" y="292.06" style="fill:#FFFFFF;" width="15.679" height="15.679"/>
</g>
<rect x="336.485" y="292.06" style="fill:#FA004B;" width="15.679" height="15.679"/>
</svg>