<?xml version="1.0" encoding="iso-8859-1"?>
<!-- Uploaded to: SVG Repo, www.svgrepo.com, Generator: SVG Repo Mixer Tools -->
<!DOCTYPE svg PUBLIC "-//W3C//DTD SVG 1.1//EN" "http://www.w3.org/Graphics/SVG/1.1/DTD/svg11.dtd">
<svg fill="#000000" version="1.1" id="Capa_1" xmlns="http://www.w3.org/2000/svg" xmlns:xlink="http://www.w3.org/1999/xlink" 
	 width="800px" height="800px" viewBox="0 0 378.407 378.408"
	 xml:space="preserve">
<g>
	<g>
		<g>
			<path d="M370.871,128.27c0-0.612-0.611-1.836-1.836-2.448c-45.898-23.868-97.308-38.556-144.433-57.528
				c-3.061-1.224-6.118,1.225-6.731,3.672c-6.119,22.032-11.627,44.677-17.135,67.32c-9.793-39.168-20.196-78.948-29.988-118.116
				c-0.612-2.447-2.448-3.061-4.284-2.447c-0.612-1.225-2.448-2.448-4.284-1.836C108.936,25.454,55.08,41.979,4.284,60.338
				c-0.612,0-0.612,0.612-1.224,0.612C1.836,60.338,0,60.95,0,62.786c0.612,74.052,15.3,153,29.376,225.828
				c0.612,1.836,1.224,2.448,2.448,3.061c-0.612,1.836,0.612,3.672,3.06,3.061c41.616-7.345,81.396-20.809,121.788-31.212
				c-6.732,12.853-8.568,29.987-9.792,44.063c-0.612,3.672,5.508,4.283,6.12,0.611c1.836-7.956,3.672-15.912,5.508-23.867
				c1.836-7.345,4.896-14.076,6.12-21.421c0-0.611,0-0.611,0-1.225c6.12-1.224,11.628-3.06,17.748-4.283
				c-3.06,4.283-4.896,9.181-6.732,15.3c-0.612,2.448,1.224,4.896,3.06,5.509c40.392,15.3,86.292,23.867,129.743,18.972
				c1.836,0.612,4.896,0,6.121-2.447c18.358-46.513,35.496-95.473,41.614-145.656c0-1.836-1.225-3.06-2.446-3.06
				c0-0.612-0.613-0.612-1.226-0.612c-34.271-17.748-77.11-25.704-114.442-36.108c-1.226-0.611-3.062,0-4.285,1.225
				c-4.283,4.896-4.896,5.508-6.119,7.956l0,0c-9.793,13.464-15.912,33.66-20.195,50.796c-1.225-5.508-2.449-11.017-3.672-16.524
				c8.566-23.868,15.299-47.735,22.644-71.604c45.288,19.584,91.801,41.616,139.536,52.632c1.224,0,1.836,0,2.447,0
				c-2.447,39.78-14.688,78.947-26.315,116.892c-11.017,34.271-27.539,67.932-36.72,102.815c-0.612-0.611-0.612-0.611-1.225-1.225
				c-47.736-22.031-102.205-34.271-154.836-39.779c-2.448,0-2.448,3.061-0.612,3.672c50.796,14.076,100.979,30.601,151.165,45.288
				c1.836,0.611,3.06,0,4.283-1.225c1.225,1.225,3.672,1.836,4.896,0c46.513-64.26,51.408-151.775,69.156-227.052
				C379.439,128.881,374.543,126.434,370.871,128.27z M212.363,179.678c3.672-9.792,7.344-19.584,11.016-29.376
				c3.062-8.568,7.957-17.748,9.793-26.929c14.688-8.567,50.797,9.792,64.26,14.076c17.138,5.508,34.271,11.628,52.021,14.076
				c-14.688,45.899-26.314,92.412-41.615,138.312c-25.092-1.836-50.184-3.061-75.274-7.345c-10.404-1.836-22.033-3.672-32.438-7.344
				c-14.075-5.509-13.463-6.12-8.566-18.973c11.017-2.447,22.031-4.283,33.048-5.508c6.12-0.612,6.731-9.792,0-9.792
				c0,0,0,0-0.611,0c-4.285-19.584-8.568-39.168-12.853-59.363C211.752,180.902,212.363,180.289,212.363,179.678z M214.199,240.877
				c-59.363,1.836-121.787,25.092-176.255,47.124c0-0.612,0-1.225,0-1.836C28.152,213.949,20.808,138.061,4.896,66.457h0.612
				C58.14,52.993,111.996,40.753,163.404,24.229C175.032,97.058,191.557,171.11,214.199,240.877z"/>
			<path d="M190.332,179.678c-0.612,0-1.835,0.611-2.448,0.611c-7.956-44.676-20.808-88.74-33.66-132.191
				c-0.612-2.448-4.284-1.836-4.284,0c-0.612,0-1.224-0.612-1.836-0.612C107.1,49.322,62.424,63.398,26.316,82.982V82.37
				c0-1.224-1.836-1.836-2.448-0.612c-7.956,15.301,1.836,37.332,4.896,52.633c6.12,31.212,11.628,63.035,22.032,93.023
				c1.224,3.06,5.508,2.447,6.12,0c0.612,0.611,1.836,1.224,2.448,1.224c44.064-14.688,88.128-28.151,133.417-39.779
				C198.287,187.022,195.84,178.453,190.332,179.678z M56.916,223.129c-0.612,0-0.612,0.611-1.224,1.225
				c-4.284-23.257-10.404-46.512-15.912-69.769c-4.284-19.584-14.076-45.288-14.076-66.096
				c41.004-11.628,82.008-22.032,123.012-33.66c0.612,0,1.224-0.612,1.224-0.612c4.284,42.229,18.36,87.517,31.824,127.297
				C139.536,192.53,96.696,203.545,56.916,223.129z"/>
			<path d="M118.728,93.386c-13.464,1.836-23.868,11.016-29.376,22.644c-3.672-1.836-7.344-3.672-11.628-3.06
				c-7.956,0-16.524,6.119-18.36,14.075c-3.06,17.137,18.972,26.929,34.272,29.376c2.448,2.448,6.12,3.061,10.404,0.612
				c18.36-10.404,25.704-35.496,25.704-55.08C130.356,95.833,124.236,92.161,118.728,93.386z"/>
			<path d="M296.82,163.154c-8.568-7.344-19.584-3.06-26.929,3.06c-1.225,1.225-2.448,2.448-3.672,3.061
				c-0.612-0.612-1.836-1.836-3.061-2.448c-7.344-4.896-17.748-4.284-23.256,3.672c-12.24,17.136,12.852,37.333,23.866,47.736
				c3.062,3.061,6.732,1.836,9.181-0.611c0.612,0,1.836,0,2.449,0c6.731-1.836,9.791-6.12,14.688-11.628
				c3.672-4.284,7.955-8.568,10.404-13.465C305.389,183.961,306,170.497,296.82,163.154z"/>
		</g>
	</g>
</g>
</svg>